<?xml version="1.0" encoding="utf-8"?>
<!-- Generator: Adobe Illustrator 17.0.0, SVG Export Plug-In . SVG Version: 6.00 Build 0)  -->
<!DOCTYPE svg PUBLIC "-//W3C//DTD SVG 1.1//EN" "http://www.w3.org/Graphics/SVG/1.1/DTD/svg11.dtd">
<svg version="1.1" xmlns="http://www.w3.org/2000/svg" xmlns:xlink="http://www.w3.org/1999/xlink" x="0px" y="0px" width="100px"
	 height="100px" viewBox="0 0 100 100" enable-background="new 0 0 100 100" xml:space="preserve">
<g id="Layer_1" display="none">
	
		<image display="inline" overflow="visible" width="58" height="58" xlink:href="E4105940.jpg"  transform="matrix(1.6628 0 0 1.5861 2.3432 2.0905)">
	</image>
</g>
<g id="Layer_4">
	<path fill="#FBB040" stroke="#000000" stroke-miterlimit="10" d="M59.217,66.344c0.339,0.566,7.919,18.1,8.258,20.701
		c0.339,2.602,4.299,0.679,4.299,0.679l16.176-8.145L71.208,66.344H59.217z"/>
</g>
<g id="Layer_5">
	<path fill="#FBB040" stroke="#000000" stroke-miterlimit="10" d="M56.615,65.326c-0.339,1.244-0.113,2.262-2.715,4.299
		s-3.163,2.489-3.9,4.864s-2.006,7.183-0.455,9.422c1.421,2.052-3.45,0.419-3.45,0.419s1.131-8.824,0.566-10.068
		c-0.566-1.244-4.186-5.882-4.186-5.882l2.715-10.633L56.615,65.326z"/>
</g>
<g id="Layer_3">
	<path fill="#FBB040" stroke="#000000" stroke-miterlimit="10" d="M29.919,51.412c0,0-2.489,2.602-1.244,6.335
		c1.244,3.733,3.733,7.24,5.656,11.652c1.923,4.412,2.262,2.489,1.923,7.353c-0.339,4.864-0.339,5.882-0.339,5.882
		s-4.186,0.566-5.43,0.679c-1.244,0.113-12.33,1.131-12.443,2.715c-0.113,1.584-0.339,3.507,2.149,4.299s0.654-0.679,0.654-0.679
		s-1.156-2.036,0-2.262c1.156-0.226,14.052-2.262,16.767-2.262s2.036,0.113,10.407,0.679s9.842-0.226,9.276,2.149
		c-0.566,2.376-0.566,2.376-0.566,2.376l2.489-2.376l-1.471-2.828l-19.149-2.828l0.597-8.937c0,0,0.947-1.478,3.585-4.585
		c2.637-3.107,3.316-7.18,3.881-8.424c0.566-1.244-9.163-8.937-9.163-8.937H29.919z"/>
</g>
<g id="Layer_2">
	<path fill="#FBB040" stroke="#000000" stroke-miterlimit="10" d="M21.095,24.828c0,0,2.489-8.484,9.05-8.937
		c6.561-0.452,8.484-1.018,9.842-1.131c1.357-0.113,8.71,0.905,9.163,5.034c0.452,4.129-0.452,6.618-1.697,7.749
		s-3.054,2.149-3.167,3.054c-0.113,0.905,35.973,39.14,38.235,40.271c2.262,1.131-0.679,2.489-0.679,2.489l-20.588-3.507
		c0,0-35.068-14.593-36.199-22.738s-0.113-14.819,1.357-15.95c1.471-1.131,3.281-3.054,3.281-3.054s-8.032-2.715-8.597-1.923
		S21.095,24.828,21.095,24.828z"/>
</g>
<g id="Layer_6">
	<path fill="#BE1E2D" stroke="#000000" stroke-miterlimit="10" d="M38.598,20.149c0,0.647-0.525,1.172-1.172,1.172l0,0
		c-0.647,0-1.172-0.525-1.172-1.172v-0.483c0-0.647,0.525-1.172,1.172-1.172l0,0c0.647,0,1.172,0.525,1.172,1.172V20.149z"/>
</g>
</svg>
